<?xml version="1.0" standalone="no"?><!DOCTYPE svg PUBLIC "-//W3C//DTD SVG 1.1//EN" "http://www.w3.org/Graphics/SVG/1.1/DTD/svg11.dtd"><svg t="1526707851976" class="icon" style="" viewBox="0 0 1024 1024" version="1.1" xmlns="http://www.w3.org/2000/svg" p-id="3253" xmlns:xlink="http://www.w3.org/1999/xlink" width="200" height="200"><defs><style type="text/css"></style></defs><path d="M810.666667 192h-10.666667a32 32 0 0 0 0 64h10.666667V192z" fill="#A8A8B4" p-id="3254"></path><path d="M810.666667 192v64a85.333333 85.333333 0 0 1 0 170.666667H96a32 32 0 0 0 0 64H810.666667a149.333333 149.333333 0 1 0 0-298.666667zM682.666667 554.666667H202.666667a32 32 0 0 0 0 64H682.666667a85.333333 85.333333 0 1 1-85.333334 85.333333v-10.666667a32 32 0 0 0-64 0v10.666667a149.333333 149.333333 0 1 0 149.333334-149.333333z" fill="#A8A8B4" p-id="3255"></path><path d="M202.666667 714.666667m-32 0a32 32 0 1 0 64 0 32 32 0 1 0-64 0Z" fill="#A8A8B4" p-id="3256"></path><path d="M330.666667 757.333333m-32 0a32 32 0 1 0 64 0 32 32 0 1 0-64 0Z" fill="#A8A8B4" p-id="3257"></path><path d="M202.666667 330.666667m-32 0a32 32 0 1 0 64 0 32 32 0 1 0-64 0Z" fill="#A8A8B4" p-id="3258"></path><path d="M330.666667 330.666667m-32 0a32 32 0 1 0 64 0 32 32 0 1 0-64 0Z" fill="#A8A8B4" p-id="3259"></path><path d="M458.666667 330.666667m-32 0a32 32 0 1 0 64 0 32 32 0 1 0-64 0Z" fill="#A8A8B4" p-id="3260"></path></svg>